<svg xmlns="http://www.w3.org/2000/svg" viewBox="0 0 990.09 957.33"><defs><style>.cls-1{fill:#fff;}</style></defs><title>Asset 6</title><g id="Layer_2" data-name="Layer 2"><g id="Layer_1-2" data-name="Layer 1"><ellipse class="cls-1" cx="279.68" cy="447.85" rx="51.75" ry="51.96"/><path class="cls-1" d="M523.39,117.79c-138.87,0-259,81.92-315.14,200.16H542.11L691.8,468.26s-83.16,87.21-183-31.55c0,0-48,148.45-181.11,248.65H249.79c64,81.15,162.79,133.37,273.6,133.37,192.39,0,348.91-157.22,348.91-350.47S715.78,117.79,523.39,117.79Z"/><path class="cls-1" d="M523.39,0C326.64,0,150.89,124.23,84.23,309.76A613.69,613.69,0,0,0,0,620.42a624.81,624.81,0,0,0,4.12,71.16,54.22,54.22,0,0,0,53.87,48h85.23A470,470,0,0,0,278.13,866.49v36.62a54.21,54.21,0,0,0,54.22,54.22H388a54.19,54.19,0,0,0,48-29.06,467.08,467.08,0,0,0,195.83-4.51A54.23,54.23,0,0,0,682,957.33h55.62a54.21,54.21,0,0,0,54.22-54.22v-52c124.71-87.88,198.26-228.83,198.26-382.9C990.09,210.06,780.73,0,523.39,0ZM737.61,822v81.15H682V850.45a410.9,410.9,0,0,1-294,8.9v43.76H332.35v-68a416,416,0,0,1-160-149.76H58a568.25,568.25,0,0,1-3.76-64.94,557.54,557.54,0,0,1,79.37-287.6c56-162,209.59-278.6,389.8-278.6,227.44,0,412.48,185.73,412.48,414C935.87,617.87,856.4,749.2,737.61,822Z"/><path d="M523.39,54.22c-180.21,0-333.78,116.61-389.8,278.6a557.54,557.54,0,0,0-79.37,287.6A568.25,568.25,0,0,0,58,685.36H172.3A416,416,0,0,0,332.35,835.12v68H388V859.35a410.9,410.9,0,0,0,294-8.9v52.66h55.62V822C856.4,749.2,935.87,617.87,935.87,468.26,935.87,240,750.83,54.22,523.39,54.22ZM227.94,447.85a51.75,51.75,0,1,1,51.74,51.95A51.85,51.85,0,0,1,227.94,447.85ZM523.39,818.73c-110.81,0-209.64-52.22-273.6-133.37h77.94c133.06-100.2,181.11-248.65,181.11-248.65,99.8,118.76,183,31.55,183,31.55L542.11,318H208.25c56.13-118.24,176.27-200.16,315.14-200.16C715.78,117.79,872.3,275,872.3,468.26S715.78,818.73,523.39,818.73Z"/></g></g></svg>